<mxfile host="app.diagrams.net" modified="2024-01-10T16:37:09.353Z" agent="Mozilla/5.0 (Windows NT 10.0; Win64; x64) AppleWebKit/537.36 (KHTML, like Gecko) Chrome/119.0.0.0 Safari/537.36 OPR/105.0.0.0" etag="QFLIu_slw_rFGsv_9pOJ" version="21.2.9" type="google">
  <diagram name="Página-1" id="Wn-PdOU-OWG76TjrirUF">
    <mxGraphModel grid="1" page="1" gridSize="10" guides="1" tooltips="1" connect="1" arrows="1" fold="1" pageScale="1" pageWidth="827" pageHeight="1169" background="#000000" math="0" shadow="0">
      <root>
        <mxCell id="0" />
        <mxCell id="1" parent="0" />
        <mxCell id="4dhC4NLB9aWBkfgviMjY-2" value="CLIENTE" style="whiteSpace=wrap;html=1;align=center;fillColor=#dae8fc;strokeColor=#6c8ebf;" vertex="1" parent="1">
          <mxGeometry x="144" y="190" width="100" height="40" as="geometry" />
        </mxCell>
        <mxCell id="4dhC4NLB9aWBkfgviMjY-3" value="PRODUTO" style="whiteSpace=wrap;html=1;align=center;fillColor=#dae8fc;strokeColor=#6c8ebf;" vertex="1" parent="1">
          <mxGeometry x="424" y="745" width="100" height="40" as="geometry" />
        </mxCell>
        <mxCell id="4dhC4NLB9aWBkfgviMjY-4" value="FORNECEDOR" style="whiteSpace=wrap;html=1;align=center;fillColor=#dae8fc;strokeColor=#6c8ebf;" vertex="1" parent="1">
          <mxGeometry x="64" y="745" width="100" height="40" as="geometry" />
        </mxCell>
        <mxCell id="4dhC4NLB9aWBkfgviMjY-43" style="edgeStyle=orthogonalEdgeStyle;rounded=0;orthogonalLoop=1;jettySize=auto;html=1;exitX=0.75;exitY=1;exitDx=0;exitDy=0;" edge="1" parent="1" source="4dhC4NLB9aWBkfgviMjY-5">
          <mxGeometry relative="1" as="geometry">
            <mxPoint x="524" y="655" as="targetPoint" />
          </mxGeometry>
        </mxCell>
        <mxCell id="4dhC4NLB9aWBkfgviMjY-5" value="FUNCIONARIO" style="whiteSpace=wrap;html=1;align=center;fillColor=#dae8fc;strokeColor=#6c8ebf;" vertex="1" parent="1">
          <mxGeometry x="634" y="280" width="100" height="40" as="geometry" />
        </mxCell>
        <mxCell id="4dhC4NLB9aWBkfgviMjY-6" value="DEPARTAMENTO" style="whiteSpace=wrap;html=1;align=center;fillColor=#dae8fc;strokeColor=#6c8ebf;" vertex="1" parent="1">
          <mxGeometry x="649" y="725" width="100" height="40" as="geometry" />
        </mxCell>
        <mxCell id="4dhC4NLB9aWBkfgviMjY-25" style="rounded=0;orthogonalLoop=1;jettySize=auto;html=1;entryX=0.5;entryY=0;entryDx=0;entryDy=0;strokeColor=#FFFFFF;" edge="1" parent="1" source="4dhC4NLB9aWBkfgviMjY-11" target="4dhC4NLB9aWBkfgviMjY-2">
          <mxGeometry relative="1" as="geometry" />
        </mxCell>
        <mxCell id="4dhC4NLB9aWBkfgviMjY-11" value="id" style="ellipse;whiteSpace=wrap;html=1;align=center;fillColor=#000000;strokeColor=#FFFFFF;fontColor=#FFFFFF;" vertex="1" parent="1">
          <mxGeometry x="149" y="140" width="50" height="30" as="geometry" />
        </mxCell>
        <mxCell id="4dhC4NLB9aWBkfgviMjY-17" value="nome" style="ellipse;whiteSpace=wrap;html=1;align=center;fillColor=#000000;strokeColor=#FFFFFF;fontColor=#FFFFFF;" vertex="1" parent="1">
          <mxGeometry x="214" y="130" width="50" height="30" as="geometry" />
        </mxCell>
        <mxCell id="4dhC4NLB9aWBkfgviMjY-24" style="rounded=0;orthogonalLoop=1;jettySize=auto;html=1;strokeColor=#FFFFFF;" edge="1" parent="1" source="4dhC4NLB9aWBkfgviMjY-18" target="4dhC4NLB9aWBkfgviMjY-2">
          <mxGeometry relative="1" as="geometry" />
        </mxCell>
        <mxCell id="4dhC4NLB9aWBkfgviMjY-18" value="cpf" style="ellipse;whiteSpace=wrap;html=1;align=center;fillColor=#000000;strokeColor=#FFFFFF;fontColor=#FFFFFF;rotation=2;" vertex="1" parent="1">
          <mxGeometry x="54" y="160" width="50" height="30" as="geometry" />
        </mxCell>
        <mxCell id="4dhC4NLB9aWBkfgviMjY-27" style="rounded=0;orthogonalLoop=1;jettySize=auto;html=1;strokeColor=#FFFFFF;" edge="1" parent="1" source="4dhC4NLB9aWBkfgviMjY-19">
          <mxGeometry relative="1" as="geometry">
            <mxPoint x="254" y="210" as="targetPoint" />
          </mxGeometry>
        </mxCell>
        <mxCell id="4dhC4NLB9aWBkfgviMjY-19" value="telefone" style="ellipse;shape=doubleEllipse;margin=3;whiteSpace=wrap;html=1;align=center;fillColor=#000000;fontColor=#FFFFFF;strokeColor=#FFFFFF;gradientColor=none;" vertex="1" parent="1">
          <mxGeometry x="274" y="170" width="60" height="30" as="geometry" />
        </mxCell>
        <mxCell id="4dhC4NLB9aWBkfgviMjY-26" style="rounded=0;orthogonalLoop=1;jettySize=auto;html=1;entryX=0.88;entryY=-0.05;entryDx=0;entryDy=0;entryPerimeter=0;strokeColor=#FFFFFF;" edge="1" parent="1" source="4dhC4NLB9aWBkfgviMjY-17" target="4dhC4NLB9aWBkfgviMjY-2">
          <mxGeometry relative="1" as="geometry" />
        </mxCell>
        <mxCell id="4dhC4NLB9aWBkfgviMjY-42" value="" style="rounded=0;orthogonalLoop=1;jettySize=auto;html=1;strokeColor=#FFFFFF;" edge="1" parent="1" source="4dhC4NLB9aWBkfgviMjY-35" target="4dhC4NLB9aWBkfgviMjY-2">
          <mxGeometry relative="1" as="geometry" />
        </mxCell>
        <mxCell id="4dhC4NLB9aWBkfgviMjY-35" value="endereço" style="ellipse;whiteSpace=wrap;html=1;align=center;fillColor=#000000;strokeColor=#FFFFFF;fontColor=#FFFFFF;" vertex="1" parent="1">
          <mxGeometry x="149" y="270" width="85" height="30" as="geometry" />
        </mxCell>
        <mxCell id="4dhC4NLB9aWBkfgviMjY-36" value="bairro" style="ellipse;whiteSpace=wrap;html=1;align=center;fillColor=#000000;strokeColor=#FFFFFF;fontColor=#FFFFFF;" vertex="1" parent="1">
          <mxGeometry x="184" y="320" width="50" height="30" as="geometry" />
        </mxCell>
        <mxCell id="4dhC4NLB9aWBkfgviMjY-41" style="rounded=0;orthogonalLoop=1;jettySize=auto;html=1;strokeColor=#FFFFFF;" edge="1" parent="1" source="4dhC4NLB9aWBkfgviMjY-37" target="4dhC4NLB9aWBkfgviMjY-35">
          <mxGeometry relative="1" as="geometry" />
        </mxCell>
        <mxCell id="4dhC4NLB9aWBkfgviMjY-37" value="numero" style="ellipse;whiteSpace=wrap;html=1;align=center;fillColor=#000000;strokeColor=#FFFFFF;fontColor=#FFFFFF;" vertex="1" parent="1">
          <mxGeometry x="84" y="300" width="50" height="30" as="geometry" />
        </mxCell>
        <mxCell id="4dhC4NLB9aWBkfgviMjY-39" style="rounded=0;orthogonalLoop=1;jettySize=auto;html=1;strokeColor=#FFFFFF;" edge="1" parent="1" source="4dhC4NLB9aWBkfgviMjY-38" target="4dhC4NLB9aWBkfgviMjY-35">
          <mxGeometry relative="1" as="geometry" />
        </mxCell>
        <mxCell id="4dhC4NLB9aWBkfgviMjY-38" value="cep" style="ellipse;whiteSpace=wrap;html=1;align=center;fillColor=#000000;strokeColor=#FFFFFF;fontColor=#FFFFFF;" vertex="1" parent="1">
          <mxGeometry x="259" y="290" width="50" height="30" as="geometry" />
        </mxCell>
        <mxCell id="4dhC4NLB9aWBkfgviMjY-40" style="rounded=0;orthogonalLoop=1;jettySize=auto;html=1;entryX=0.624;entryY=0.967;entryDx=0;entryDy=0;entryPerimeter=0;strokeColor=#FFFFFF;" edge="1" parent="1" source="4dhC4NLB9aWBkfgviMjY-36" target="4dhC4NLB9aWBkfgviMjY-35">
          <mxGeometry relative="1" as="geometry" />
        </mxCell>
        <mxCell id="Ec-0hYUA3qV54kSTbYih-9" style="rounded=0;orthogonalLoop=1;jettySize=auto;html=1;entryX=0.33;entryY=0.075;entryDx=0;entryDy=0;strokeColor=#FFFFFF;entryPerimeter=0;" edge="1" parent="1" source="Ec-0hYUA3qV54kSTbYih-10" target="4dhC4NLB9aWBkfgviMjY-5">
          <mxGeometry relative="1" as="geometry">
            <mxPoint x="694" y="250" as="targetPoint" />
          </mxGeometry>
        </mxCell>
        <mxCell id="Ec-0hYUA3qV54kSTbYih-10" value="id" style="ellipse;whiteSpace=wrap;html=1;align=center;fillColor=#000000;strokeColor=#FFFFFF;fontColor=#FFFFFF;" vertex="1" parent="1">
          <mxGeometry x="649" y="200" width="50" height="30" as="geometry" />
        </mxCell>
        <mxCell id="Ec-0hYUA3qV54kSTbYih-11" value="nome" style="ellipse;whiteSpace=wrap;html=1;align=center;fillColor=#000000;strokeColor=#FFFFFF;fontColor=#FFFFFF;" vertex="1" parent="1">
          <mxGeometry x="714" y="190" width="50" height="30" as="geometry" />
        </mxCell>
        <mxCell id="Ec-0hYUA3qV54kSTbYih-60" value="" style="edgeStyle=orthogonalEdgeStyle;rounded=0;orthogonalLoop=1;jettySize=auto;html=1;" edge="1" parent="1" source="Ec-0hYUA3qV54kSTbYih-12" target="Ec-0hYUA3qV54kSTbYih-10">
          <mxGeometry relative="1" as="geometry" />
        </mxCell>
        <mxCell id="Ec-0hYUA3qV54kSTbYih-12" value="cpf" style="ellipse;whiteSpace=wrap;html=1;align=center;fillColor=#000000;strokeColor=#FFFFFF;fontColor=#FFFFFF;rotation=2;" vertex="1" parent="1">
          <mxGeometry x="544" y="230" width="50" height="30" as="geometry" />
        </mxCell>
        <mxCell id="Ec-0hYUA3qV54kSTbYih-13" style="rounded=0;orthogonalLoop=1;jettySize=auto;html=1;strokeColor=#FFFFFF;" edge="1" parent="1" source="Ec-0hYUA3qV54kSTbYih-11" target="4dhC4NLB9aWBkfgviMjY-5">
          <mxGeometry relative="1" as="geometry">
            <mxPoint x="732" y="248" as="targetPoint" />
          </mxGeometry>
        </mxCell>
        <mxCell id="Ec-0hYUA3qV54kSTbYih-14" style="rounded=0;orthogonalLoop=1;jettySize=auto;html=1;strokeColor=#FFFFFF;entryX=0;entryY=0;entryDx=0;entryDy=0;" edge="1" parent="1" target="4dhC4NLB9aWBkfgviMjY-5">
          <mxGeometry relative="1" as="geometry">
            <mxPoint x="594" y="248.5" as="sourcePoint" />
            <mxPoint x="636" y="261.5" as="targetPoint" />
          </mxGeometry>
        </mxCell>
        <mxCell id="Ec-0hYUA3qV54kSTbYih-15" value="telefone" style="ellipse;shape=doubleEllipse;margin=3;whiteSpace=wrap;html=1;align=center;fillColor=#000000;fontColor=#FFFFFF;strokeColor=#FFFFFF;gradientColor=none;" vertex="1" parent="1">
          <mxGeometry x="764" y="260" width="60" height="30" as="geometry" />
        </mxCell>
        <mxCell id="Ec-0hYUA3qV54kSTbYih-16" style="rounded=0;orthogonalLoop=1;jettySize=auto;html=1;strokeColor=#FFFFFF;exitX=0.167;exitY=0.833;exitDx=0;exitDy=0;exitPerimeter=0;entryX=1;entryY=0.75;entryDx=0;entryDy=0;" edge="1" parent="1" source="Ec-0hYUA3qV54kSTbYih-15" target="4dhC4NLB9aWBkfgviMjY-5">
          <mxGeometry relative="1" as="geometry">
            <mxPoint x="744" y="310" as="targetPoint" />
            <mxPoint x="774" y="290" as="sourcePoint" />
          </mxGeometry>
        </mxCell>
        <mxCell id="Ec-0hYUA3qV54kSTbYih-27" style="rounded=0;orthogonalLoop=1;jettySize=auto;html=1;entryX=0.75;entryY=1;entryDx=0;entryDy=0;strokeColor=#FFFFFF;" edge="1" parent="1" source="Ec-0hYUA3qV54kSTbYih-28" target="4dhC4NLB9aWBkfgviMjY-4">
          <mxGeometry relative="1" as="geometry">
            <mxPoint x="84" y="910" as="targetPoint" />
          </mxGeometry>
        </mxCell>
        <mxCell id="Ec-0hYUA3qV54kSTbYih-28" value="id" style="ellipse;whiteSpace=wrap;html=1;align=center;fillColor=#000000;strokeColor=#FFFFFF;fontColor=#FFFFFF;" vertex="1" parent="1">
          <mxGeometry x="109" y="855" width="50" height="30" as="geometry" />
        </mxCell>
        <mxCell id="Ec-0hYUA3qV54kSTbYih-29" value="nome" style="ellipse;whiteSpace=wrap;html=1;align=center;fillColor=#000000;strokeColor=#FFFFFF;fontColor=#FFFFFF;" vertex="1" parent="1">
          <mxGeometry x="164" y="840" width="50" height="30" as="geometry" />
        </mxCell>
        <mxCell id="Ec-0hYUA3qV54kSTbYih-33" value="telefone" style="ellipse;shape=doubleEllipse;margin=3;whiteSpace=wrap;html=1;align=center;fillColor=#000000;fontColor=#FFFFFF;strokeColor=#FFFFFF;gradientColor=none;" vertex="1" parent="1">
          <mxGeometry x="49" y="840" width="60" height="30" as="geometry" />
        </mxCell>
        <mxCell id="Ec-0hYUA3qV54kSTbYih-44" style="rounded=0;orthogonalLoop=1;jettySize=auto;html=1;entryX=0;entryY=1;entryDx=0;entryDy=0;strokeColor=#FFFFFF;" edge="1" parent="1" source="Ec-0hYUA3qV54kSTbYih-45" target="4dhC4NLB9aWBkfgviMjY-3">
          <mxGeometry relative="1" as="geometry">
            <mxPoint x="439" y="745" as="targetPoint" />
          </mxGeometry>
        </mxCell>
        <mxCell id="Ec-0hYUA3qV54kSTbYih-45" value="id" style="ellipse;whiteSpace=wrap;html=1;align=center;fillColor=#000000;strokeColor=#FFFFFF;fontColor=#FFFFFF;" vertex="1" parent="1">
          <mxGeometry x="334" y="855" width="50" height="30" as="geometry" />
        </mxCell>
        <mxCell id="Ec-0hYUA3qV54kSTbYih-46" value="nome" style="ellipse;whiteSpace=wrap;html=1;align=center;fillColor=#000000;strokeColor=#FFFFFF;fontColor=#FFFFFF;" vertex="1" parent="1">
          <mxGeometry x="399" y="845" width="50" height="30" as="geometry" />
        </mxCell>
        <mxCell id="Ec-0hYUA3qV54kSTbYih-48" style="rounded=0;orthogonalLoop=1;jettySize=auto;html=1;entryX=0.35;entryY=1.05;entryDx=0;entryDy=0;entryPerimeter=0;strokeColor=#FFFFFF;" edge="1" parent="1" source="Ec-0hYUA3qV54kSTbYih-46" target="4dhC4NLB9aWBkfgviMjY-3">
          <mxGeometry relative="1" as="geometry">
            <mxPoint x="417" y="903" as="targetPoint" />
          </mxGeometry>
        </mxCell>
        <mxCell id="Ec-0hYUA3qV54kSTbYih-61" value="COMPRA" style="shape=ext;margin=3;double=1;whiteSpace=wrap;html=1;align=center;fillColor=#dae8fc;strokeColor=#6c8ebf;" vertex="1" parent="1">
          <mxGeometry x="404" y="375" width="100" height="40" as="geometry" />
        </mxCell>
        <mxCell id="Ec-0hYUA3qV54kSTbYih-62" value="Contem&lt;br&gt;produto_compra" style="shape=associativeEntity;whiteSpace=wrap;html=1;align=center;fillColor=#dae8fc;strokeColor=#6c8ebf;" vertex="1" parent="1">
          <mxGeometry x="384" y="565" width="140" height="60" as="geometry" />
        </mxCell>
        <mxCell id="Ec-0hYUA3qV54kSTbYih-63" value="Realiza" style="shape=rhombus;perimeter=rhombusPerimeter;whiteSpace=wrap;html=1;align=center;fillColor=#dae8fc;strokeColor=#6c8ebf;" vertex="1" parent="1">
          <mxGeometry x="203" y="405" width="120" height="60" as="geometry" />
        </mxCell>
        <mxCell id="Ec-0hYUA3qV54kSTbYih-64" value="codigo" style="ellipse;whiteSpace=wrap;html=1;align=center;fillColor=#000000;strokeColor=#FFFFFF;fontColor=#FFFFFF;rotation=2;" vertex="1" parent="1">
          <mxGeometry x="404" y="295" width="50" height="30" as="geometry" />
        </mxCell>
        <mxCell id="Ec-0hYUA3qV54kSTbYih-65" style="rounded=0;orthogonalLoop=1;jettySize=auto;html=1;strokeColor=#FFFFFF;entryX=0.25;entryY=0;entryDx=0;entryDy=0;exitX=0.5;exitY=1;exitDx=0;exitDy=0;" edge="1" parent="1" source="Ec-0hYUA3qV54kSTbYih-64" target="Ec-0hYUA3qV54kSTbYih-61">
          <mxGeometry relative="1" as="geometry">
            <mxPoint x="418" y="325" as="sourcePoint" />
            <mxPoint x="460" y="338" as="targetPoint" />
          </mxGeometry>
        </mxCell>
        <mxCell id="Ec-0hYUA3qV54kSTbYih-66" value="Pertence" style="shape=rhombus;perimeter=rhombusPerimeter;whiteSpace=wrap;html=1;align=center;fillColor=#dae8fc;strokeColor=#6c8ebf;" vertex="1" parent="1">
          <mxGeometry x="674" y="615" width="120" height="60" as="geometry" />
        </mxCell>
        <mxCell id="Ec-0hYUA3qV54kSTbYih-67" value="Registra" style="shape=rhombus;perimeter=rhombusPerimeter;whiteSpace=wrap;html=1;align=center;fillColor=#dae8fc;strokeColor=#6c8ebf;" vertex="1" parent="1">
          <mxGeometry x="544" y="470" width="120" height="60" as="geometry" />
        </mxCell>
        <mxCell id="Ec-0hYUA3qV54kSTbYih-68" value="Fornece" style="shape=rhombus;perimeter=rhombusPerimeter;whiteSpace=wrap;html=1;align=center;fillColor=#dae8fc;strokeColor=#6c8ebf;" vertex="1" parent="1">
          <mxGeometry x="224" y="735" width="120" height="60" as="geometry" />
        </mxCell>
        <mxCell id="Ec-0hYUA3qV54kSTbYih-70" value="" style="endArrow=none;html=1;rounded=0;strokeColor=#FFFFFF;fillColor=#dae8fc;exitX=1;exitY=0.5;exitDx=0;exitDy=0;entryX=0;entryY=0.5;entryDx=0;entryDy=0;" edge="1" parent="1" source="4dhC4NLB9aWBkfgviMjY-4" target="Ec-0hYUA3qV54kSTbYih-68">
          <mxGeometry relative="1" as="geometry">
            <mxPoint x="114" y="830" as="sourcePoint" />
            <mxPoint x="274" y="830" as="targetPoint" />
          </mxGeometry>
        </mxCell>
        <mxCell id="Ec-0hYUA3qV54kSTbYih-71" value="" style="endArrow=none;html=1;rounded=0;strokeColor=#FFFFFF;fillColor=#dae8fc;exitX=0.5;exitY=0;exitDx=0;exitDy=0;entryX=0;entryY=0.5;entryDx=0;entryDy=0;" edge="1" parent="1" source="Ec-0hYUA3qV54kSTbYih-67" target="4dhC4NLB9aWBkfgviMjY-5">
          <mxGeometry relative="1" as="geometry">
            <mxPoint x="548" y="350" as="sourcePoint" />
            <mxPoint x="644" y="345" as="targetPoint" />
          </mxGeometry>
        </mxCell>
        <mxCell id="Ec-0hYUA3qV54kSTbYih-72" value="" style="endArrow=none;html=1;rounded=0;strokeColor=#FFFFFF;fillColor=#dae8fc;exitX=1;exitY=0.5;exitDx=0;exitDy=0;entryX=0;entryY=0.5;entryDx=0;entryDy=0;" edge="1" parent="1" source="Ec-0hYUA3qV54kSTbYih-61" target="Ec-0hYUA3qV54kSTbYih-67">
          <mxGeometry relative="1" as="geometry">
            <mxPoint x="534" y="394.5" as="sourcePoint" />
            <mxPoint x="654" y="394.5" as="targetPoint" />
          </mxGeometry>
        </mxCell>
        <mxCell id="Ec-0hYUA3qV54kSTbYih-73" value="" style="endArrow=none;html=1;rounded=0;strokeColor=#FFFFFF;fillColor=#dae8fc;exitX=1;exitY=0.5;exitDx=0;exitDy=0;entryX=0;entryY=1;entryDx=0;entryDy=0;" edge="1" parent="1" source="Ec-0hYUA3qV54kSTbYih-63" target="Ec-0hYUA3qV54kSTbYih-61">
          <mxGeometry relative="1" as="geometry">
            <mxPoint x="323" y="434.5" as="sourcePoint" />
            <mxPoint x="443" y="434.5" as="targetPoint" />
          </mxGeometry>
        </mxCell>
        <mxCell id="Ec-0hYUA3qV54kSTbYih-74" value="" style="endArrow=none;html=1;rounded=0;strokeColor=#FFFFFF;fillColor=#dae8fc;exitX=1;exitY=0.75;exitDx=0;exitDy=0;entryX=0;entryY=0.5;entryDx=0;entryDy=0;" edge="1" parent="1" source="4dhC4NLB9aWBkfgviMjY-2" target="Ec-0hYUA3qV54kSTbYih-63">
          <mxGeometry relative="1" as="geometry">
            <mxPoint x="104" y="430" as="sourcePoint" />
            <mxPoint x="224" y="430" as="targetPoint" />
          </mxGeometry>
        </mxCell>
        <mxCell id="Ec-0hYUA3qV54kSTbYih-75" value="qtd_produto" style="ellipse;whiteSpace=wrap;html=1;align=center;dashed=1;fillColor=#000000;strokeColor=#FFFFFF;fontColor=#FFFFFF;" vertex="1" parent="1">
          <mxGeometry x="504" y="285" width="70" height="30" as="geometry" />
        </mxCell>
        <mxCell id="Ec-0hYUA3qV54kSTbYih-76" style="rounded=0;orthogonalLoop=1;jettySize=auto;html=1;strokeColor=#FFFFFF;entryX=0.67;entryY=-0.025;entryDx=0;entryDy=0;exitX=0.5;exitY=1;exitDx=0;exitDy=0;entryPerimeter=0;" edge="1" parent="1" source="Ec-0hYUA3qV54kSTbYih-75" target="Ec-0hYUA3qV54kSTbYih-61">
          <mxGeometry relative="1" as="geometry">
            <mxPoint x="538.5" y="325" as="sourcePoint" />
            <mxPoint x="539.5" y="375" as="targetPoint" />
          </mxGeometry>
        </mxCell>
        <mxCell id="Ec-0hYUA3qV54kSTbYih-77" value="id" style="ellipse;whiteSpace=wrap;html=1;align=center;fillColor=#000000;strokeColor=#FFFFFF;fontColor=#FFFFFF;" vertex="1" parent="1">
          <mxGeometry x="609" y="795" width="50" height="30" as="geometry" />
        </mxCell>
        <mxCell id="Ec-0hYUA3qV54kSTbYih-78" style="rounded=0;orthogonalLoop=1;jettySize=auto;html=1;entryX=0.25;entryY=1;entryDx=0;entryDy=0;strokeColor=#FFFFFF;exitX=0.68;exitY=0.067;exitDx=0;exitDy=0;exitPerimeter=0;" edge="1" parent="1" source="Ec-0hYUA3qV54kSTbYih-77" target="4dhC4NLB9aWBkfgviMjY-6">
          <mxGeometry relative="1" as="geometry">
            <mxPoint x="689" y="815" as="targetPoint" />
            <mxPoint x="694" y="787" as="sourcePoint" />
          </mxGeometry>
        </mxCell>
        <mxCell id="Ec-0hYUA3qV54kSTbYih-79" value="descrição" style="ellipse;whiteSpace=wrap;html=1;align=center;fillColor=#000000;strokeColor=#FFFFFF;fontColor=#FFFFFF;" vertex="1" parent="1">
          <mxGeometry x="689" y="795" width="50" height="30" as="geometry" />
        </mxCell>
        <mxCell id="Ec-0hYUA3qV54kSTbYih-80" style="rounded=0;orthogonalLoop=1;jettySize=auto;html=1;entryX=0.86;entryY=1.025;entryDx=0;entryDy=0;strokeColor=#FFFFFF;exitX=0.5;exitY=0;exitDx=0;exitDy=0;entryPerimeter=0;" edge="1" parent="1" source="Ec-0hYUA3qV54kSTbYih-79" target="4dhC4NLB9aWBkfgviMjY-6">
          <mxGeometry relative="1" as="geometry">
            <mxPoint x="684" y="775" as="targetPoint" />
            <mxPoint x="653" y="807" as="sourcePoint" />
          </mxGeometry>
        </mxCell>
        <mxCell id="Ec-0hYUA3qV54kSTbYih-81" value="" style="endArrow=none;html=1;rounded=0;strokeColor=#FFFFFF;fillColor=#dae8fc;exitX=0.5;exitY=0;exitDx=0;exitDy=0;entryX=0.5;entryY=1;entryDx=0;entryDy=0;" edge="1" parent="1" source="4dhC4NLB9aWBkfgviMjY-6" target="Ec-0hYUA3qV54kSTbYih-66">
          <mxGeometry relative="1" as="geometry">
            <mxPoint x="583" y="695" as="sourcePoint" />
            <mxPoint x="664" y="675" as="targetPoint" />
          </mxGeometry>
        </mxCell>
        <mxCell id="Ec-0hYUA3qV54kSTbYih-82" value="" style="endArrow=none;html=1;rounded=0;strokeColor=#FFFFFF;fillColor=#dae8fc;entryX=0.5;entryY=1;entryDx=0;entryDy=0;" edge="1" parent="1" source="Ec-0hYUA3qV54kSTbYih-66" target="4dhC4NLB9aWBkfgviMjY-5">
          <mxGeometry relative="1" as="geometry">
            <mxPoint x="704" y="565" as="sourcePoint" />
            <mxPoint x="785" y="545" as="targetPoint" />
          </mxGeometry>
        </mxCell>
        <mxCell id="Ec-0hYUA3qV54kSTbYih-83" value="descrição" style="ellipse;whiteSpace=wrap;html=1;align=center;fillColor=#000000;strokeColor=#FFFFFF;fontColor=#FFFFFF;" vertex="1" parent="1">
          <mxGeometry x="484" y="825" width="50" height="30" as="geometry" />
        </mxCell>
        <mxCell id="Ec-0hYUA3qV54kSTbYih-84" style="rounded=0;orthogonalLoop=1;jettySize=auto;html=1;entryX=0.75;entryY=1;entryDx=0;entryDy=0;strokeColor=#FFFFFF;exitX=0.5;exitY=0;exitDx=0;exitDy=0;" edge="1" parent="1" source="Ec-0hYUA3qV54kSTbYih-83" target="4dhC4NLB9aWBkfgviMjY-3">
          <mxGeometry relative="1" as="geometry">
            <mxPoint x="465" y="801" as="targetPoint" />
            <mxPoint x="504" y="815" as="sourcePoint" />
          </mxGeometry>
        </mxCell>
        <mxCell id="Ec-0hYUA3qV54kSTbYih-85" value="" style="endArrow=none;html=1;rounded=0;strokeColor=#FFFFFF;fillColor=#dae8fc;exitX=0.5;exitY=0;exitDx=0;exitDy=0;entryX=0.5;entryY=1;entryDx=0;entryDy=0;" edge="1" parent="1" source="4dhC4NLB9aWBkfgviMjY-3" target="Ec-0hYUA3qV54kSTbYih-62">
          <mxGeometry relative="1" as="geometry">
            <mxPoint x="436.5" y="725" as="sourcePoint" />
            <mxPoint x="471.5" y="675" as="targetPoint" />
          </mxGeometry>
        </mxCell>
        <mxCell id="Ec-0hYUA3qV54kSTbYih-86" value="" style="endArrow=none;html=1;rounded=0;strokeColor=#FFFFFF;fillColor=#dae8fc;exitX=1;exitY=0.5;exitDx=0;exitDy=0;entryX=0;entryY=0.5;entryDx=0;entryDy=0;" edge="1" parent="1" source="Ec-0hYUA3qV54kSTbYih-68" target="4dhC4NLB9aWBkfgviMjY-3">
          <mxGeometry relative="1" as="geometry">
            <mxPoint x="349" y="815" as="sourcePoint" />
            <mxPoint x="384" y="765" as="targetPoint" />
          </mxGeometry>
        </mxCell>
        <mxCell id="Ec-0hYUA3qV54kSTbYih-87" value="" style="endArrow=none;html=1;rounded=0;strokeColor=#FFFFFF;fillColor=#dae8fc;exitX=0.5;exitY=0;exitDx=0;exitDy=0;" edge="1" parent="1" source="Ec-0hYUA3qV54kSTbYih-62" target="Ec-0hYUA3qV54kSTbYih-61">
          <mxGeometry relative="1" as="geometry">
            <mxPoint x="474" y="530" as="sourcePoint" />
            <mxPoint x="454" y="425" as="targetPoint" />
          </mxGeometry>
        </mxCell>
        <mxCell id="Ec-0hYUA3qV54kSTbYih-88" style="rounded=0;orthogonalLoop=1;jettySize=auto;html=1;strokeColor=#FFFFFF;exitX=0.5;exitY=0;exitDx=0;exitDy=0;entryX=0.25;entryY=1;entryDx=0;entryDy=0;" edge="1" parent="1" source="Ec-0hYUA3qV54kSTbYih-33" target="4dhC4NLB9aWBkfgviMjY-4">
          <mxGeometry relative="1" as="geometry">
            <mxPoint x="99" y="795" as="targetPoint" />
            <mxPoint x="89" y="880" as="sourcePoint" />
          </mxGeometry>
        </mxCell>
        <mxCell id="Ec-0hYUA3qV54kSTbYih-89" style="rounded=0;orthogonalLoop=1;jettySize=auto;html=1;entryX=1;entryY=1;entryDx=0;entryDy=0;strokeColor=#FFFFFF;exitX=0.5;exitY=0;exitDx=0;exitDy=0;" edge="1" parent="1" source="Ec-0hYUA3qV54kSTbYih-29" target="4dhC4NLB9aWBkfgviMjY-4">
          <mxGeometry relative="1" as="geometry">
            <mxPoint x="174" y="795" as="targetPoint" />
            <mxPoint x="199" y="880" as="sourcePoint" />
          </mxGeometry>
        </mxCell>
        <mxCell id="Ec-0hYUA3qV54kSTbYih-91" value="id_produtp" style="ellipse;whiteSpace=wrap;html=1;align=center;fillColor=#000000;strokeColor=#FFFFFF;fontColor=#FFFFFF;rotation=2;" vertex="1" parent="1">
          <mxGeometry x="224" y="595" width="60" height="40" as="geometry" />
        </mxCell>
        <mxCell id="Ec-0hYUA3qV54kSTbYih-92" value="id_produto_compra" style="ellipse;whiteSpace=wrap;html=1;align=center;fillColor=#000000;strokeColor=#FFFFFF;fontColor=#FFFFFF;rotation=2;" vertex="1" parent="1">
          <mxGeometry x="194" y="545" width="110" height="30" as="geometry" />
        </mxCell>
        <mxCell id="Ec-0hYUA3qV54kSTbYih-93" value="id_compra" style="ellipse;whiteSpace=wrap;html=1;align=center;fillColor=#000000;strokeColor=#FFFFFF;fontColor=#FFFFFF;rotation=2;" vertex="1" parent="1">
          <mxGeometry x="234" y="665" width="60" height="30" as="geometry" />
        </mxCell>
        <mxCell id="Ec-0hYUA3qV54kSTbYih-95" style="rounded=0;orthogonalLoop=1;jettySize=auto;html=1;entryX=0;entryY=0.25;entryDx=0;entryDy=0;strokeColor=#FFFFFF;exitX=1;exitY=0.5;exitDx=0;exitDy=0;" edge="1" parent="1" source="Ec-0hYUA3qV54kSTbYih-92" target="Ec-0hYUA3qV54kSTbYih-62">
          <mxGeometry relative="1" as="geometry">
            <mxPoint x="334" y="505" as="targetPoint" />
            <mxPoint x="359" y="560" as="sourcePoint" />
          </mxGeometry>
        </mxCell>
        <mxCell id="Ec-0hYUA3qV54kSTbYih-96" style="rounded=0;orthogonalLoop=1;jettySize=auto;html=1;entryX=0;entryY=0.5;entryDx=0;entryDy=0;strokeColor=#FFFFFF;exitX=1;exitY=0.5;exitDx=0;exitDy=0;" edge="1" parent="1" source="Ec-0hYUA3qV54kSTbYih-91" target="Ec-0hYUA3qV54kSTbYih-62">
          <mxGeometry relative="1" as="geometry">
            <mxPoint x="309" y="567.5" as="targetPoint" />
            <mxPoint x="334" y="622.5" as="sourcePoint" />
          </mxGeometry>
        </mxCell>
        <mxCell id="Ec-0hYUA3qV54kSTbYih-97" style="rounded=0;orthogonalLoop=1;jettySize=auto;html=1;entryX=-0.021;entryY=0.867;entryDx=0;entryDy=0;strokeColor=#FFFFFF;exitX=1;exitY=0.5;exitDx=0;exitDy=0;entryPerimeter=0;" edge="1" parent="1" source="Ec-0hYUA3qV54kSTbYih-93" target="Ec-0hYUA3qV54kSTbYih-62">
          <mxGeometry relative="1" as="geometry">
            <mxPoint x="323" y="610" as="targetPoint" />
            <mxPoint x="348" y="665" as="sourcePoint" />
          </mxGeometry>
        </mxCell>
        <mxCell id="Ec-0hYUA3qV54kSTbYih-100" value="&lt;font color=&quot;#ffffff&quot;&gt;1&lt;/font&gt;" style="text;html=1;align=center;verticalAlign=middle;resizable=0;points=[];autosize=1;strokeColor=none;fillColor=none;" vertex="1" parent="1">
          <mxGeometry x="384" y="390" width="30" height="30" as="geometry" />
        </mxCell>
        <mxCell id="Ec-0hYUA3qV54kSTbYih-101" value="&lt;font color=&quot;#ffffff&quot;&gt;1&lt;/font&gt;" style="text;html=1;align=center;verticalAlign=middle;resizable=0;points=[];autosize=1;strokeColor=none;fillColor=none;" vertex="1" parent="1">
          <mxGeometry x="234" y="220" width="30" height="30" as="geometry" />
        </mxCell>
        <mxCell id="Ec-0hYUA3qV54kSTbYih-103" value="&lt;font color=&quot;#ffffff&quot;&gt;1&lt;/font&gt;" style="text;html=1;align=center;verticalAlign=middle;resizable=0;points=[];autosize=1;strokeColor=none;fillColor=none;" vertex="1" parent="1">
          <mxGeometry x="159" y="745" width="30" height="30" as="geometry" />
        </mxCell>
        <mxCell id="Ec-0hYUA3qV54kSTbYih-107" value="" style="edgeStyle=orthogonalEdgeStyle;rounded=0;orthogonalLoop=1;jettySize=auto;html=1;" edge="1" parent="1" target="Ec-0hYUA3qV54kSTbYih-100">
          <mxGeometry relative="1" as="geometry">
            <mxPoint x="654" y="515" as="sourcePoint" />
          </mxGeometry>
        </mxCell>
        <mxCell id="Ec-0hYUA3qV54kSTbYih-105" value="&lt;font color=&quot;#ffffff&quot;&gt;1&lt;/font&gt;" style="text;html=1;align=center;verticalAlign=middle;resizable=0;points=[];autosize=1;strokeColor=none;fillColor=none;" vertex="1" parent="1">
          <mxGeometry x="609" y="300" width="30" height="30" as="geometry" />
        </mxCell>
        <mxCell id="Ec-0hYUA3qV54kSTbYih-106" value="&lt;font color=&quot;#ffffff&quot;&gt;1&lt;/font&gt;" style="text;html=1;align=center;verticalAlign=middle;resizable=0;points=[];autosize=1;strokeColor=none;fillColor=none;" vertex="1" parent="1">
          <mxGeometry x="504" y="385" width="30" height="30" as="geometry" />
        </mxCell>
        <mxCell id="Ec-0hYUA3qV54kSTbYih-111" value="" style="edgeStyle=orthogonalEdgeStyle;rounded=0;orthogonalLoop=1;jettySize=auto;html=1;" edge="1" parent="1" source="Ec-0hYUA3qV54kSTbYih-105">
          <mxGeometry relative="1" as="geometry">
            <mxPoint x="609" y="315" as="sourcePoint" />
            <mxPoint x="574" y="315" as="targetPoint" />
          </mxGeometry>
        </mxCell>
        <mxCell id="Ec-0hYUA3qV54kSTbYih-112" value="&lt;font color=&quot;#ffffff&quot;&gt;n&lt;/font&gt;" style="text;html=1;align=center;verticalAlign=middle;resizable=0;points=[];autosize=1;strokeColor=none;fillColor=none;" vertex="1" parent="1">
          <mxGeometry x="403" y="745" width="30" height="30" as="geometry" />
        </mxCell>
        <mxCell id="Ec-0hYUA3qV54kSTbYih-113" value="&lt;font color=&quot;#ffffff&quot;&gt;n&lt;/font&gt;" style="text;html=1;align=center;verticalAlign=middle;resizable=0;points=[];autosize=1;strokeColor=none;fillColor=none;" vertex="1" parent="1">
          <mxGeometry x="444" y="405" width="30" height="30" as="geometry" />
        </mxCell>
        <mxCell id="Ec-0hYUA3qV54kSTbYih-114" value="&lt;font color=&quot;#ffffff&quot;&gt;n&lt;/font&gt;" style="text;html=1;align=center;verticalAlign=middle;resizable=0;points=[];autosize=1;strokeColor=none;fillColor=none;" vertex="1" parent="1">
          <mxGeometry x="464" y="725" width="30" height="30" as="geometry" />
        </mxCell>
        <mxCell id="Ec-0hYUA3qV54kSTbYih-115" value="&lt;font color=&quot;#ffffff&quot;&gt;1&lt;/font&gt;" style="text;html=1;align=center;verticalAlign=middle;resizable=0;points=[];autosize=1;strokeColor=none;fillColor=none;" vertex="1" parent="1">
          <mxGeometry x="674" y="705" width="30" height="30" as="geometry" />
        </mxCell>
        <mxCell id="Ec-0hYUA3qV54kSTbYih-117" value="&lt;font color=&quot;#ffffff&quot;&gt;1&lt;/font&gt;" style="text;html=1;align=center;verticalAlign=middle;resizable=0;points=[];autosize=1;strokeColor=none;fillColor=none;" vertex="1" parent="1">
          <mxGeometry x="684" y="315" width="30" height="30" as="geometry" />
        </mxCell>
        <mxCell id="Ec-0hYUA3qV54kSTbYih-120" value="&lt;font color=&quot;#ffffff&quot; style=&quot;font-size: 20px;&quot;&gt;Modelo Conceitual de Carlos Henrique Pinto Oliveira&lt;/font&gt;" style="text;html=1;align=center;verticalAlign=middle;resizable=0;points=[];autosize=1;strokeColor=none;fillColor=none;fontSize=20;" vertex="1" parent="1">
          <mxGeometry x="174" y="51" width="490" height="40" as="geometry" />
        </mxCell>
      </root>
    </mxGraphModel>
  </diagram>
</mxfile>
